<svg width="90" height="90" viewBox="0 0 90 90" fill="none" xmlns="http://www.w3.org/2000/svg">
<rect width="90" height="90" rx="12" fill="#E9F1FF"/>
<path opacity="0.4" d="M60.0035 31.6957H59.1746L52.17 24.6911C51.6104 24.1316 50.6986 24.1316 50.1183 24.6911C49.5588 25.2507 49.5588 26.1625 50.1183 26.7428L55.0713 31.6957H34.9279L39.8808 26.7428C40.4404 26.1832 40.4404 25.2714 39.8808 24.6911C39.3213 24.1316 38.4094 24.1316 37.8292 24.6911L30.8453 31.6957H30.0163C28.1512 31.6957 24.2759 31.6957 24.2759 37.001C24.2759 39.0112 24.6904 40.3375 25.5607 41.2079C26.0581 41.726 26.6591 41.9954 27.3015 42.1405C27.9025 42.2855 28.545 42.3063 29.1667 42.3063H60.8325C61.4749 42.3063 62.0759 42.2648 62.6561 42.1405C64.3969 41.726 65.7233 40.4826 65.7233 37.001C65.7233 31.6957 61.8479 31.6957 60.0035 31.6957Z" fill="#2B75F8"/>
<path d="M60.8534 42.3066H29.1669C28.5659 42.3066 27.9027 42.2859 27.3018 42.1201L29.9129 58.0566C30.4932 61.6211 32.0475 65.7244 38.9485 65.7244H50.5745C57.5583 65.7244 58.8018 62.2221 59.5478 58.3053L62.6771 42.1201C62.0968 42.2652 61.4751 42.3066 60.8534 42.3066ZM44.9998 58.4711C40.1504 58.4711 36.1922 54.5129 36.1922 49.6635C36.1922 48.8139 36.8968 48.1093 37.7465 48.1093C38.5962 48.1093 39.3008 48.8139 39.3008 49.6635C39.3008 52.8135 41.8498 55.3626 44.9998 55.3626C48.1498 55.3626 50.6988 52.8135 50.6988 49.6635C50.6988 48.8139 51.4034 48.1093 52.2531 48.1093C53.1027 48.1093 53.8074 48.8139 53.8074 49.6635C53.8074 54.5129 49.8491 58.4711 44.9998 58.4711Z" fill="#2B75F8"/>
</svg>
