<svg width="24" height="24" viewBox="0 0 24 24" fill="none" xmlns="http://www.w3.org/2000/svg">
<path d="M19.24 5.57957H18.84L15.46 2.19957C15.19 1.92957 14.75 1.92957 14.47 2.19957C14.2 2.46957 14.2 2.90957 14.47 3.18957L16.86 5.57957H7.14L9.53 3.18957C9.8 2.91957 9.8 2.47957 9.53 2.19957C9.26 1.92957 8.82 1.92957 8.54 2.19957L5.17 5.57957H4.77C3.87 5.57957 2 5.57957 2 8.13957C2 9.10957 2.2 9.74957 2.62 10.1696C2.86 10.4196 3.15 10.5496 3.46 10.6196C3.75 10.6896 4.06 10.6996 4.36 10.6996H19.64C19.95 10.6996 20.24 10.6796 20.52 10.6196C21.36 10.4196 22 9.81957 22 8.13957C22 5.57957 20.13 5.57957 19.24 5.57957Z" fill="white"/>
<path d="M19.0502 12H4.87016C4.25016 12 3.78016 12.55 3.88016 13.16L4.72016 18.3C5.00016 20.02 5.75015 22 9.08015 22H14.6902C18.0602 22 18.6602 20.31 19.0202 18.42L20.0302 13.19C20.1502 12.57 19.6802 12 19.0502 12ZM12.0002 19.5C9.66016 19.5 7.75016 17.59 7.75016 15.25C7.75016 14.84 8.09015 14.5 8.50015 14.5C8.91015 14.5 9.25015 14.84 9.25015 15.25C9.25015 16.77 10.4802 18 12.0002 18C13.5202 18 14.7502 16.77 14.7502 15.25C14.7502 14.84 15.0902 14.5 15.5002 14.5C15.9102 14.5 16.2502 14.84 16.2502 15.25C16.2502 17.59 14.3402 19.5 12.0002 19.5Z" fill="white"/>
</svg>
