<svg width="14" height="14" viewBox="0 0 14 14" fill="none" xmlns="http://www.w3.org/2000/svg">
<g clip-path="url(#clip0_507_2)">
<path d="M13.5723 5.48774C13.0459 4.62572 12.3819 3.85573 11.6066 3.20833L13.2393 1.57561C13.463 1.34396 13.4566 0.974822 13.225 0.751096C12.999 0.532838 12.6407 0.532838 12.4148 0.751096L10.6392 2.52901C9.53848 1.87525 8.28012 1.53448 6.99996 1.54355C3.38987 1.54355 1.33263 4.01481 0.427645 5.48776C-0.142589 6.41008 -0.142589 7.57548 0.427645 8.49782C0.954063 9.35984 1.61808 10.1298 2.39334 10.7772L0.760623 12.4099C0.52897 12.6337 0.522547 13.0028 0.746273 13.2345C0.969998 13.4661 1.33917 13.4725 1.57079 13.2488C1.57566 13.2441 1.58044 13.2393 1.58514 13.2345L3.3648 11.4548C4.46413 12.1085 5.72099 12.4498 6.99996 12.442C10.61 12.442 12.6673 9.97075 13.5723 8.4978C14.1425 7.57548 14.1425 6.41008 13.5723 5.48774ZM3.50128 6.99278C3.49797 5.06371 5.05908 3.49722 6.98815 3.49391C7.71804 3.49266 8.43 3.7201 9.02398 4.14426L8.1773 4.99095C7.82185 4.7766 7.41504 4.66234 6.99998 4.66032C5.7118 4.66032 4.66752 5.7046 4.66752 6.99278C4.66955 7.40784 4.7838 7.81465 4.99815 8.17009L4.15147 9.01678C3.72867 8.42656 3.50131 7.71879 3.50128 6.99278ZM6.99998 10.4915C6.27397 10.4915 5.5662 10.2641 4.97598 9.8413L5.82267 8.99461C6.17812 9.20896 6.58492 9.32322 6.99998 9.32524C8.28816 9.32524 9.33244 8.28096 9.33244 6.99278C9.33042 6.57772 9.21616 6.17091 9.00181 5.81547L9.8485 4.96878C10.9695 6.53866 10.6057 8.7201 9.03582 9.84113C8.44183 10.2653 7.72987 10.4927 6.99998 10.4915Z" fill="#374957"/>
</g>
<defs>
<clipPath id="clip0_507_2">
<rect width="14" height="14" fill="white"/>
</clipPath>
</defs>
</svg>
