<svg width="14" height="14" viewBox="0 0 14 14" fill="none" xmlns="http://www.w3.org/2000/svg">
<path d="M6.99997 9.33239C8.28814 9.33239 9.33242 8.28811 9.33242 6.99993C9.33242 5.71176 8.28814 4.66748 6.99997 4.66748C5.71179 4.66748 4.66751 5.71176 4.66751 6.99993C4.66751 8.28811 5.71179 9.33239 6.99997 9.33239Z" fill="#374957"/>
<path d="M13.5723 5.49499C12.6679 4.02204 10.6107 1.55078 7.00002 1.55078C3.38936 1.55078 1.33212 4.02204 0.427706 5.49499C-0.142528 6.41731 -0.142528 7.58271 0.427706 8.50505C1.33212 9.97801 3.38936 12.4493 7.00002 12.4493C10.6107 12.4493 12.6679 9.97801 13.5723 8.50505C14.1426 7.58271 14.1426 6.41731 13.5723 5.49499ZM7.00002 10.4987C5.06775 10.4987 3.50132 8.93228 3.50132 7.00001C3.50132 5.06774 5.06775 3.50131 7.00002 3.50131C8.93228 3.50131 10.4987 5.06774 10.4987 7.00001C10.4968 8.93148 8.93149 10.4968 7.00002 10.4987Z" fill="#374957"/>
</svg>
